<?xml version="1.0" encoding="UTF-8" standalone="no"?>
<!-- Created with Inkscape (http://www.inkscape.org/) -->

<svg
   width="512"
   height="512"
   viewBox="0 0 512 512"
   version="1.1"
   id="svg1"
   inkscape:version="1.3.2 (091e20e, 2023-11-25, custom)"
   sodipodi:docname="trainer_logo.svg"
   inkscape:export-filename="foreground.svg"
   inkscape:export-xdpi="96"
   inkscape:export-ydpi="96"
   xmlns:inkscape="http://www.inkscape.org/namespaces/inkscape"
   xmlns:sodipodi="http://sodipodi.sourceforge.net/DTD/sodipodi-0.dtd"
   xmlns="http://www.w3.org/2000/svg"
   xmlns:svg="http://www.w3.org/2000/svg">
  <sodipodi:namedview
     id="namedview1"
     pagecolor="#505050"
     bordercolor="#eeeeee"
     borderopacity="1"
     inkscape:showpageshadow="0"
     inkscape:pageopacity="0"
     inkscape:pagecheckerboard="0"
     inkscape:deskcolor="#505050"
     inkscape:document-units="px"
     inkscape:zoom="0.35355339"
     inkscape:cx="-138.59293"
     inkscape:cy="360.62446"
     inkscape:window-width="1920"
     inkscape:window-height="1057"
     inkscape:window-x="-8"
     inkscape:window-y="-8"
     inkscape:window-maximized="1"
     inkscape:current-layer="layer1" />
  <defs
     id="defs1" />
  <g
     inkscape:label="Layer 1"
     inkscape:groupmode="layer"
     id="layer1">
    <g
       id="g3"
       inkscape:label="background">
      <rect
         style="display:inline;fill:#4f4b63;fill-opacity:1;fill-rule:nonzero;stroke-width:1.05551"
         id="rect1"
         width="512"
         height="512"
         x="-1.335144e-05"
         y="0"
         ry="0"
         inkscape:label="background" />
    </g>
    <g
       id="g1"
       inkscape:label="foreground"
       transform="matrix(0.86598597,0,0,0.86598597,34.307592,34.334531)"
       style="display:inline">
      <path
         id="path1"
         style="display:inline;fill:#222224;fill-opacity:1"
         d="M 80.841797,237.24805 A 176.5,176.5 0 0 0 79.5,256 176.5,176.5 0 0 0 80.841797,274.75195 H 431.1582 A 176.5,176.5 0 0 0 432.5,256 176.5,176.5 0 0 0 431.4707,237.24805 Z"
         inkscape:label="trim"
         transform="matrix(1.1547531,0,0,1.1547531,-39.616799,-39.647907)" />
      <path
         id="rect2"
         style="display:inline;fill:#ee1515;fill-opacity:1;stroke-width:0.962678"
         d="M 256,79.5 A 176.5,176.5 0 0 0 80.841797,237.24805 H 431.4707 A 176.5,176.5 0 0 0 256,79.5 Z"
         inkscape:label="top half"
         transform="matrix(1.1547531,0,0,1.1547531,-39.616799,-39.647907)" />
      <path
         id="rect3"
         style="display:inline;fill:#f0f0f0;fill-opacity:1;stroke-width:0.962679"
         d="M 80.841797,274.75195 A 176.5,176.5 0 0 0 256,432.5 176.5,176.5 0 0 0 431.1582,274.75195 Z"
         inkscape:label="bottom half"
         transform="matrix(1.1547531,0,0,1.1547531,-39.616799,-39.647907)" />
      <circle
         style="display:inline;fill:#222224;fill-opacity:1;stroke-width:1.82823"
         id="circle8"
         cx="256"
         cy="256"
         r="82.786194"
         transform="matrix(1.1547531,0,0,1.1547531,-39.616799,-39.647907)" />
      <circle
         style="display:inline;fill:#f0f0f0;fill-opacity:1"
         id="path8"
         cx="256"
         cy="256"
         r="45.282181"
         transform="matrix(1.1547531,0,0,1.1547531,-39.616799,-39.647907)" />
    </g>
  </g>
</svg>
